Coordinates
version=1
nRows=22
nColumns=24
inDegrees=yes

Units are S.I. units (second, meters, Newtons, ...)
Angles are in degrees.

endheader
time	pelvis_tilt	pelvis_list	pelvis_rotation	pelvis_tx	pelvis_ty	pelvis_tz	hip_flexion_r	hip_adduction_r	hip_rotation_r	knee_angle_r	ankle_angle_r	subtalar_angle_r	mtp_angle_r	hip_flexion_l	hip_adduction_l	hip_rotation_l	knee_angle_l	ankle_angle_l	subtalar_angle_l	mtp_angle_l	lumbar_extension	lumbar_bending	lumbar_rotation
      1.39583333	      7.89335369	      0.95393712	     -4.00109044	      0.21997452	      1.03568199	      0.27646869	      4.84518187	     -6.40638330	     -4.61750629	    -62.09126880	      5.40943895	     -2.56432251	     11.28466258	     -0.74056341	      3.06573209	     -5.85308546	     -9.37808394	     -1.15716271	    -19.15485838	     -7.22243274	    -18.61951920	     -3.56208257	      3.88381756
      1.40000000	      7.91175412	      0.84956442	     -3.57586933	      0.22475562	      1.03638922	      0.27518282	      5.30380412	     -6.30064168	     -5.14976592	    -61.85441967	      5.48887656	     -3.14667989	      5.82825150	     -1.16283736	      3.03679662	     -5.33801831	     -9.14175655	     -1.13990124	    -19.33139894	     -7.88820954	    -18.70615427	     -3.29240399	      3.65621299
      1.40416667	      7.96890899	      0.66493895	     -3.31988481	      0.22956035	      1.03717724	      0.27445298	      5.73178727	     -6.04137827	     -5.48375124	    -61.53199230	      5.47459247	     -3.90547156	      5.75276310	     -1.63175245	      2.86871004	     -5.22408136	     -8.93821771	     -0.97831264	    -19.08885854	     -7.89832656	    -18.81422288	     -2.98967012	      3.34583584
      1.40833333	      8.05965133	      0.49379638	     -2.98849762	      0.23425755	      1.03796870	      0.27351837	      6.10172359	     -5.82753300	     -5.91130807	    -61.15285341	      5.44940219	     -4.60401849	      5.66793695	     -2.12922418	      2.72840339	     -4.93341524	     -8.72173823	     -0.86436378	    -18.96666930	     -7.90579655	    -18.99857233	     -2.68624050	      3.10206984
      1.41250000	      8.23754925	      0.30388964	     -2.55716295	      0.23903627	      1.03890539	      0.27232500	      6.30601472	     -5.63693583	     -6.47461066	    -60.66239849	      5.51104882	     -5.13686297	      5.49193693	     -2.72683680	      2.57193953	     -4.56827752	     -8.48616103	     -0.78604140	    -18.85969720	     -7.92321350	    -19.26440812	     -2.30741092	      2.63273365
      1.41666667	      8.35455816	      0.13927066	     -2.17286156	      0.24379196	      1.03969885	      0.27123888	      6.59160186	     -5.46562073	     -6.99073832	    -60.14739548	      5.51703528	     -5.70677739	      5.28888511	     -3.25706212	      2.43382952	     -4.23602826	     -8.25031368	     -0.70460844	    -18.80709036	     -7.94187263	    -19.44995908	     -1.97763090	      2.29757654
      1.42083333	      8.41666050	     -0.00544356	     -1.85624247	      0.24851605	      1.04035336	      0.27034045	      6.95768085	     -5.29802651	     -7.43290471	    -59.61511433	      5.47696780	     -6.30030866	      5.15781585	     -3.72676739	      2.30624031	     -3.97113341	     -8.01724799	     -0.60532399	    -18.74902380	     -7.95152152	    -19.57147101	     -1.69805495	      2.09062824
      1.42500000	      8.61561218	     -0.17185440	     -1.43245038	      0.25325656	      1.04121942	      0.26918781	      7.10262973	     -5.14692143	     -8.01000217	    -58.97011327	      5.55990533	     -6.69684414	      4.89509495	     -4.34581755	      2.15373788	     -3.61583312	     -7.76564280	     -0.54134717	    -18.66308563	     -7.97120694	    -19.85586926	     -1.34339279	      1.62333372
      1.42916667	      8.69008550	     -0.31975959	     -1.10534387	      0.25795694	      1.04183475	      0.26827471	      7.42166879	     -4.98613761	     -8.47257300	    -58.32449483	      5.52577700	     -7.17896382	      4.71366342	     -4.82732734	      2.01190509	     -3.33705957	     -7.52466036	     -0.43960995	    -18.60219803	     -7.98194176	    -19.99468590	     -1.04160754	      1.40024506
      1.43333333	      8.89097402	     -0.46722760	     -0.70586092	      0.26269025	      1.04262507	      0.26722138	      7.54240612	     -4.85306215	     -9.03454356	    -57.58281185	      5.62021035	     -7.50327236	      4.42145945	     -5.44639638	      1.86203520	     -3.02901022	     -7.27002888	     -0.38019579	    -18.52790714	     -7.99875845	    -20.26504810	     -0.72868589	      0.98373716
      1.43750000	      9.03934576	     -0.60828701	     -0.34672270	      0.26739109	      1.04328741	      0.26627030	      7.72875559	     -4.71542142	     -9.54974534	    -56.81248904	      5.65737129	     -7.83879501	      4.11994524	     -6.00577179	      1.71280125	     -2.74223288	     -7.01996081	     -0.29896989	    -18.46420150	     -8.01346380	    -20.47900560	     -0.42480676	      0.67225231
      1.44166667	      9.14946975	     -0.73533948	     -0.00308633	      0.27209903	      1.04385843	      0.26539416	      7.94814404	     -4.58638045	    -10.04673006	    -56.00131888	      5.70015817	     -8.12728141	      3.82303671	     -6.52029001	      1.56992206	     -2.47411884	     -6.77519816	     -0.21476805	    -18.39683453	     -8.02521200	    -20.64605693	     -0.15765904	      0.37401870
      1.44583333	      9.28987264	     -0.85456954	      0.32754272	      0.27680234	      1.04442336	      0.26451418	      8.12133032	     -4.47333284	    -10.54277713	    -55.14446987	      5.75210364	     -8.35557198	      3.51355468	     -7.07219829	      1.43369428	     -2.22902369	     -6.51772755	     -0.13725882	    -18.33677417	     -8.03402716	    -20.84582618	      0.12832328	      0.08443216
      1.45000000	      9.38292628	     -0.97562056	      0.63042905	      0.28149824	      1.04488554	      0.26377574	      8.34041063	     -4.33864967	    -10.99722149	    -54.23959812	      5.74778051	     -8.57149163	      3.29417042	     -7.56730274	      1.28570265	     -2.00294991	     -6.27474346	     -0.02397654	    -18.26221962	     -8.03591363	    -20.98668841	      0.37589330	     -0.12673142
      1.45416667	      9.48339039	     -1.08117484	      0.93832094	      0.28622627	      1.04531899	      0.26300695	      8.52839868	     -4.22992663	    -11.46860992	    -53.28774141	      5.79148219	     -8.71650121	      3.08186445	     -8.06998902	      1.15058582	     -1.79251954	     -6.03084408	      0.06669472	    -18.19069885	     -8.03568069	    -21.13243505	      0.62899331	     -0.38749860
      1.45833333	      9.57020778	     -1.16769743	      1.23077632	      0.29093064	      1.04568432	      0.26229900	      8.72466457	     -4.13914769	    -11.92560015	    -52.30216279	      5.84335623	     -8.82180965	      2.87305093	     -8.55668807	      1.03151849	     -1.58671259	     -5.78475212	      0.15700770	    -18.12227654	     -8.03240104	    -21.26493048	      0.84875805	     -0.64315183
      1.46250000	      9.67454405	     -1.24065980	      1.51395023	      0.29563000	      1.04602476	      0.26162727	      8.88630533	     -4.06005570	    -12.37511484	    -51.27136091	      5.89024598	     -8.89077428	      2.65776475	     -9.06341933	      0.92251221	     -1.38914068	     -5.53645022	      0.24701682	    -18.06023053	     -8.02600790	    -21.41790431	      1.05148079	     -0.89287285
      1.46666667	      9.77647187	     -1.28838916	      1.79621725	      0.30033784	      1.04632308	      0.26096985	      9.03355608	     -4.01095508	    -12.83212287	    -50.20392670	      5.97606906	     -8.92747299	      2.35354252	     -9.56863214	      0.83629310	     -1.19216159	     -5.28173596	      0.29756050	    -18.01323864	     -8.01449877	    -21.56725644	      1.22837948	     -1.18981485
      1.47083333	      9.82404503	     -1.33605669	      2.04165105	      0.30505650	      1.04649677	      0.26043177	      9.23544848	     -3.94706880	    -13.24091127	    -49.09712171	      6.00470397	     -8.94662699	      2.09048908	    -10.01198970	      0.74799559	     -1.02956991	     -5.04191343	      0.39229241	    -17.94350613	     -7.99950310	    -21.65033208	      1.38380189	     -1.38915660
      1.47500000	      9.76891675	     -1.37216921	      2.18979070	      0.30981193	      1.04646140	      0.26013830	      9.56587014	     -3.86888879	    -13.52763218	    -47.98180041	      6.03500662	     -8.92233551	      2.00325966	    -10.34741079	      0.68118690	     -0.97567876	     -4.81430895	      0.46877977	    -17.89263670	     -7.99277495	    -21.61059303	      1.48020930	     -1.44822117
      1.47916667	      9.88247307	     -1.39886416	      2.46662307	      0.31450249	      1.04665257	      0.25956009	      9.64668057	     -3.83212363	    -13.98634468	    -46.76506250	      6.00167162	     -8.93356544	      1.81251747	    -10.85619992	      0.60155016	     -0.77447827	     -4.58830646	      0.64654741	    -17.78373966	     -7.97337657	    -21.77976861	      1.63090346	     -1.71362661
      1.48333333	      9.80667102	     -1.39470814	      2.57602038	      0.31928365	      1.04650131	      0.25938324	      9.97377970	     -3.78730017	    -14.23164579	    -45.57971724	      6.04022178	     -8.85469845	      1.73982344	    -11.17798376	      0.57857745	     -0.74906638	     -4.34922096	      0.67761699	    -17.73764290	     -7.96596656	    -21.71220842	      1.67003781	     -1.78550668
